<?xml version="1.0" encoding="UTF-8"?>
<svg xmlns="http://www.w3.org/2000/svg" xmlns:xlink="http://www.w3.org/1999/xlink" width="35pt" height="35pt" viewBox="0 0 35 35" version="1.1">
<g id="surface1">
<path style=" stroke:none;fill-rule:nonzero;fill:rgb(41.176471%,44.705882%,85.490196%);fill-opacity:1;" d="M 30.894531 25.578125 L 10.664062 25.578125 C 10.195312 25.578125 9.789062 25.253906 9.683594 24.792969 L 4.582031 2.691406 L 1.007812 2.691406 C 0.453125 2.691406 0 2.242188 0 1.683594 C 0 1.125 0.453125 0.671875 1.007812 0.671875 L 5.382812 0.671875 C 5.855469 0.671875 6.261719 0.996094 6.367188 1.457031 L 11.46875 23.558594 L 30.894531 23.558594 C 31.453125 23.558594 31.902344 24.007812 31.902344 24.566406 C 31.902344 25.125 31.453125 25.578125 30.894531 25.578125 Z M 30.894531 25.578125 "/>
<path style=" stroke:none;fill-rule:nonzero;fill:rgb(8.627451%,57.254902%,100%);fill-opacity:1;" d="M 34.777344 5.089844 C 34.585938 4.851562 34.296875 4.710938 33.992188 4.710938 L 6.316406 4.710938 C 6.007812 4.710938 5.71875 4.851562 5.527344 5.09375 C 5.335938 5.332031 5.261719 5.648438 5.332031 5.949219 L 8.4375 19.410156 C 8.546875 19.867188 8.953125 20.191406 9.421875 20.191406 L 30.960938 20.191406 C 31.433594 20.191406 31.84375 19.863281 31.945312 19.40625 L 34.976562 5.941406 C 35.042969 5.644531 34.96875 5.328125 34.777344 5.089844 Z M 34.777344 5.089844 "/>
<path style=" stroke:none;fill-rule:nonzero;fill:rgb(41.176471%,44.705882%,85.490196%);fill-opacity:1;" d="M 14.808594 26.921875 C 12.765625 26.921875 11.105469 28.582031 11.105469 30.625 C 11.105469 32.667969 12.765625 34.328125 14.808594 34.328125 C 16.847656 34.328125 18.507812 32.667969 18.507812 30.625 C 18.507812 28.582031 16.847656 26.921875 14.808594 26.921875 Z M 14.808594 26.921875 "/>
<path style=" stroke:none;fill-rule:nonzero;fill:rgb(30.980392%,36.862745%,77.647059%);fill-opacity:1;" d="M 26.921875 26.921875 C 24.882812 26.921875 23.222656 28.582031 23.222656 30.625 C 23.222656 32.667969 24.882812 34.328125 26.921875 34.328125 C 28.964844 34.328125 30.625 32.667969 30.625 30.625 C 30.625 28.582031 28.964844 26.921875 26.921875 26.921875 Z M 26.921875 26.921875 "/>
<path style=" stroke:none;fill-rule:nonzero;fill:rgb(30.980392%,36.862745%,77.647059%);fill-opacity:1;" d="M 30.894531 23.558594 L 17.5 23.558594 L 17.5 25.578125 L 30.894531 25.578125 C 31.453125 25.578125 31.902344 25.125 31.902344 24.566406 C 31.902344 24.007812 31.453125 23.558594 30.894531 23.558594 Z M 30.894531 23.558594 "/>
<path style=" stroke:none;fill-rule:nonzero;fill:rgb(0%,49.803922%,86.666667%);fill-opacity:1;" d="M 33.992188 4.710938 L 17.5 4.710938 L 17.5 20.191406 L 30.960938 20.191406 C 31.433594 20.191406 31.84375 19.863281 31.945312 19.40625 L 34.976562 5.941406 C 35.042969 5.644531 34.96875 5.328125 34.777344 5.089844 C 34.585938 4.851562 34.296875 4.710938 33.992188 4.710938 Z M 33.992188 4.710938 "/>
</g>
</svg>
